<svg xmlns="http://www.w3.org/2000/svg" xmlns:xlink="http://www.w3.org/1999/xlink" width="27.205" height="27" viewBox="0 0 27.205 27"><defs><style>.a{fill:#ff8805;}.b{filter:url(#a);}</style><filter id="a" x="0" y="0" width="27.205" height="27" filterUnits="userSpaceOnUse"><feOffset dy="1" input="SourceAlpha"/><feGaussianBlur result="b"/><feFlood flood-color="#d36e00"/><feComposite operator="in" in2="b"/><feComposite in="SourceGraphic"/></filter></defs><g class="b" transform="matrix(1, 0, 0, 1, 0, 0)"><path class="a" d="M17.046,25.347l6.6,3.99a1.586,1.586,0,0,0,2.369-1.717l-1.749-7.5L30.1,15.062a1.586,1.586,0,0,0-.906-2.782l-7.678-.652-3-7.09a1.59,1.59,0,0,0-2.925,0l-3,7.074L4.9,12.264a1.586,1.586,0,0,0-.906,2.782L9.829,20.1,8.08,27.6a1.586,1.586,0,0,0,2.369,1.717Z" transform="translate(-3.44 -3.57)"/></g></svg>