<svg xmlns="http://www.w3.org/2000/svg" width="125.387" height="34" viewBox="0 0 125.387 34"><defs><style>.a{fill:#ff8c05;}</style></defs><path class="a" d="M276.612,180.217a17,17,0,1,1,12.027-29.027,3.342,3.342,0,0,1-4.726,4.726,10.325,10.325,0,1,0,0,14.6,3.342,3.342,0,0,1,4.726,4.727A16.956,16.956,0,0,1,276.612,180.217Zm22.3-3.273V149.523a3.308,3.308,0,0,0-6.616,0v27.421a3.308,3.308,0,0,0,6.616,0ZM348.5,155.077a3.521,3.521,0,0,0-4.679,1.7l-5.41,11.6L333,156.78a3.521,3.521,0,0,0-6.382,2.976l8.594,18.43a3.51,3.51,0,0,0,2.389,1.937l.011,0c.1.024.205.043.309.058.033.005.066.007.1.011.075.008.15.016.226.019.054,0,.109,0,.163,0s.109,0,.164,0c.076,0,.151-.011.226-.019.033,0,.066-.006.1-.011.1-.014.207-.034.309-.058l.011,0a3.511,3.511,0,0,0,2.389-1.937l8.594-18.43A3.521,3.521,0,0,0,348.5,155.077Zm27.158,2.95v18.914a3.276,3.276,0,0,1-6.175,1.525,12.561,12.561,0,1,1-.126-21.7,3.277,3.277,0,0,1,6.3,1.259Zm-9.511,12.631-5.792-6.213a.51.51,0,0,0-.72-.028l-.692.645a4.792,4.792,0,1,0,6.489,6.957l.688-.641A.51.51,0,0,0,366.151,170.659Zm2.264-4.257-1.3-1.4.753-.7a.51.51,0,0,0,.023-.72l-.355-.379a.51.51,0,0,0-.72-.023l-.754.7-1.3-1.4a2.55,2.55,0,0,0-3.6-.126l-.463.431a.509.509,0,0,0-.023.72l6.438,6.9a.51.51,0,0,0,.72.028l.463-.435A2.544,2.544,0,0,0,368.416,166.4ZM385,176.941V158.022a3.308,3.308,0,0,0-6.615,0v18.919a3.308,3.308,0,0,0,6.615,0Zm-.043-27.384a3.308,3.308,0,1,1-3.308-3.308A3.308,3.308,0,0,1,384.956,149.558Zm-73.221,20.711h-4.008a7.16,7.16,0,0,0,11.858,2.065,2.789,2.789,0,1,1,4.1,3.783,12.6,12.6,0,0,1-9.356,4.1c-.38,0-.764-.017-1.14-.05a12.736,12.736,0,0,1,1.135-25.421c6.291,0,11.03,4.753,11.524,11.559a3.7,3.7,0,0,1-3.7,3.966H311.767Zm-2.745-7.56a7.15,7.15,0,0,0-1.264,2h3.8c.079-.007.159-.012.239-.012h8.153a5.6,5.6,0,0,0-5.6-4.369A7.169,7.169,0,0,0,308.99,162.708Z" transform="translate(-259.612 -146.217)"/></svg>